<?xml version="1.0" standalone="no"?>
<!DOCTYPE svg PUBLIC "-//W3C//DTD SVG 20010904//EN"
 "http://www.w3.org/TR/2001/REC-SVG-20010904/DTD/svg10.dtd">
<svg version="1.0" xmlns="http://www.w3.org/2000/svg"
 width="1024.000000pt" height="1024.000000pt" viewBox="0 0 1024.000000 1024.000000"
 preserveAspectRatio="xMidYMid meet">

<g transform="translate(0.000000,1024.000000) scale(0.100000,-0.100000)"
fill="#000000" stroke="none">
<path d="M5071 8220 c-115 -91 -238 -279 -276 -425 -25 -94 -30 -246 -11 -338
29 -141 85 -259 191 -402 l54 -73 3 -231 c2 -126 0 -227 -3 -223 -3 4 -18 43
-33 87 -70 203 -158 346 -289 472 -101 97 -153 133 -270 188 -152 71 -318 105
-509 105 l-101 0 7 -92 c8 -116 44 -268 89 -375 109 -258 335 -455 635 -552
110 -36 206 -52 357 -60 l120 -6 2 -245 c2 -194 0 -241 -10 -226 -110 170
-246 296 -376 348 -54 22 -69 23 -411 26 -249 2 -368 0 -397 -9 -55 -15 -115
-68 -142 -124 -21 -45 -21 -50 -21 -867 l0 -823 24 -50 c29 -60 76 -107 136
-134 44 -20 60 -21 1201 -21 850 0 1165 3 1190 12 53 17 113 62 141 105 36 55
50 106 52 187 l1 71 -83 0 -84 0 -4 -58 c-2 -31 -10 -71 -19 -87 -32 -62 -12
-60 -547 -60 l-488 0 2 978 3 977 115 6 c438 25 789 221 965 542 69 126 120
315 127 471 l3 69 -85 -2 c-554 -11 -906 -267 -1085 -787 l-34 -99 -1 238 0
239 75 108 c136 196 185 333 185 515 0 160 -44 303 -137 442 -42 64 -141 173
-184 203 l-27 20 -51 -40z m-439 -2222 c61 -31 93 -56 169 -136 101 -106 164
-203 205 -319 l24 -68 0 -567 0 -568 -559 0 -560 0 -28 24 -28 24 -3 796 c-2
558 1 803 8 817 6 11 21 24 33 29 12 5 165 8 343 7 l320 -2 76 -37z"/>
<path d="M5929 5991 c-22 -17 -24 -29 -29 -125 l-5 -106 -60 48 c-97 79 -128
89 -165 52 -20 -20 -27 -74 -12 -96 9 -13 140 -110 200 -148 l42 -26 0 -70 c0
-42 -4 -70 -10 -70 -21 0 -111 51 -264 150 -166 106 -205 120 -239 82 -19 -21
-22 -64 -6 -94 12 -22 292 -209 377 -252 l54 -27 -57 -40 -56 -39 -47 27 c-26
14 -84 48 -128 75 -45 26 -91 48 -103 48 -12 0 -33 -12 -48 -26 -20 -20 -24
-31 -19 -56 8 -43 18 -52 108 -106 43 -26 78 -49 78 -52 0 -3 -23 -18 -52 -35
-111 -65 -128 -82 -128 -124 0 -45 24 -71 64 -71 17 0 61 22 112 55 l84 55 0
-114 c0 -128 9 -146 72 -146 60 0 66 15 70 189 l3 154 62 32 c35 18 65 30 68
27 3 -3 5 -115 5 -249 l0 -244 26 -24 c34 -32 68 -32 99 0 25 24 25 26 26 230
1 113 3 210 4 215 1 6 3 25 4 44 l1 34 58 -31 c31 -17 60 -35 64 -41 4 -6 8
-72 8 -146 0 -148 7 -172 55 -184 25 -6 64 7 77 28 4 6 8 57 8 113 l0 102 92
-55 c51 -30 98 -54 106 -54 22 0 72 57 72 82 -1 36 -21 55 -115 107 l-87 49
100 65 c84 55 101 70 107 97 9 43 -20 84 -63 88 -24 3 -54 -13 -150 -79 l-120
-82 -56 32 c-30 18 -58 36 -60 40 -3 4 21 22 52 41 92 54 325 210 355 238 45
42 29 112 -29 126 -30 8 -41 2 -299 -164 -82 -53 -156 -100 -162 -104 -10 -5
-13 12 -13 73 l0 80 63 42 c111 76 178 131 187 155 12 32 -2 68 -35 90 -32 21
-47 15 -149 -61 l-76 -56 0 104 c0 95 -2 105 -23 125 -29 27 -67 28 -98 3z"/>
<path d="M6995 3557 c-149 -38 -290 -166 -340 -307 -97 -275 44 -580 307 -661
64 -20 174 -26 244 -13 100 18 208 90 266 175 62 93 63 92 -48 118 -90 22 -97
22 -106 7 -65 -116 -207 -159 -327 -100 -113 57 -177 209 -150 357 35 200 215
310 370 229 47 -25 109 -88 121 -123 4 -13 26 -7 136 33 l52 20 -31 59 c-41
76 -112 142 -195 181 -56 26 -81 31 -158 34 -53 2 -112 -2 -141 -9z"/>
<path d="M1130 3070 l0 -490 100 0 100 0 0 315 0 315 71 -138 c39 -75 96 -186
127 -245 l57 -108 63 3 64 3 121 242 c67 132 124 242 127 242 3 1 4 -141 4
-314 l-2 -315 99 0 99 0 0 480 c0 264 0 483 0 488 0 4 -48 7 -107 7 l-106 0
-21 -38 c-12 -20 -77 -150 -146 -287 -69 -137 -127 -249 -130 -249 -3 0 -34
58 -69 127 -35 70 -101 200 -148 290 l-84 162 -110 0 -109 0 0 -490z"/>
<path d="M2657 3553 c-3 -4 -87 -219 -187 -478 -100 -258 -184 -476 -187 -483
-4 -10 19 -12 107 -10 l113 3 32 95 32 95 195 3 196 2 35 -97 35 -98 112 -3
c103 -2 111 -1 106 15 -3 10 -89 230 -190 488 l-185 470 -105 3 c-57 1 -107
-1 -109 -5z m166 -403 c30 -85 59 -163 62 -172 7 -17 -3 -18 -119 -18 -69 0
-126 2 -126 5 0 2 25 75 56 162 30 87 57 164 60 172 2 8 6 12 8 10 2 -2 28
-74 59 -159z"/>
<path d="M3370 3071 l0 -491 99 0 98 0 0 73 c0 39 1 118 2 175 l1 103 67 -3
67 -3 110 -172 111 -173 107 0 c60 0 108 3 108 8 -1 4 -54 88 -118 186 l-118
180 46 24 c100 53 151 134 158 253 8 141 -48 239 -170 295 l-63 29 -252 3
-253 4 0 -491z m449 291 c99 -50 105 -177 12 -239 -30 -21 -46 -23 -147 -23
l-114 0 0 140 0 140 108 0 c82 0 115 -4 141 -18z"/>
<path d="M4183 3548 c2 -7 85 -228 183 -490 l179 -478 111 0 111 0 43 113 c39
102 309 808 326 850 6 16 -2 17 -112 15 l-119 -3 -118 -350 c-65 -192 -121
-357 -124 -365 -6 -18 9 -58 -138 373 l-117 347 -115 0 c-88 0 -114 -3 -110
-12z"/>
<path d="M5260 3070 l0 -490 100 0 100 0 0 490 0 490 -100 0 -100 0 0 -490z"/>
<path d="M5660 3070 l0 -490 100 0 100 0 0 310 0 310 78 -113 c42 -62 138
-202 212 -310 l135 -197 98 0 97 0 0 490 0 490 -105 0 -106 0 3 -315 c2 -172
0 -311 -3 -307 -4 4 -99 145 -213 315 l-207 307 -95 0 -94 0 0 -490z"/>
<path d="M7660 3070 l0 -490 298 0 297 0 0 90 0 90 -197 0 -198 0 0 400 0 400
-100 0 -100 0 0 -490z"/>
<path d="M8497 3078 c-103 -266 -187 -486 -187 -490 0 -5 48 -8 108 -8 l107 0
34 100 34 100 195 -2 194 -3 35 -97 35 -98 109 0 c60 0 109 3 109 8 0 4 -85
223 -188 487 l-187 480 -105 3 -106 3 -187 -483z m357 53 c31 -90 55 -165 53
-167 -2 -3 -58 -3 -124 -2 l-120 3 61 172 c33 94 64 169 67 165 3 -4 31 -81
63 -171z"/>
</g>
</svg>
